<?xml version="1.0" encoding="utf-8"?>
<svg xmlns="http://www.w3.org/2000/svg" xmlns:xlink="http://www.w3.org/1999/xlink" width="500" height="400" viewBox="0 0 2000 1600">
<defs>
  <clipPath id="clip700">
    <rect x="0" y="0" width="2000" height="1600"/>
  </clipPath>
</defs>
<path clip-path="url(#clip700)" d="M0 1600 L2000 1600 L2000 0 L0 0  Z" fill="#ffffff" fill-rule="evenodd" fill-opacity="1"/>
<defs>
  <clipPath id="clip701">
    <rect x="400" y="0" width="1401" height="1401"/>
  </clipPath>
</defs>
<path clip-path="url(#clip700)" d="M292.87 1406.76 L1952.76 1406.76 L1952.76 47.2441 L292.87 47.2441  Z" fill="#ffffff" fill-rule="evenodd" fill-opacity="1"/>
<defs>
  <clipPath id="clip702">
    <rect x="292" y="47" width="1661" height="1361"/>
  </clipPath>
</defs>
<polyline clip-path="url(#clip702)" style="stroke:#000000; stroke-linecap:round; stroke-linejoin:round; stroke-width:2; stroke-opacity:0.1; fill:none" points="575.768,1406.76 575.768,47.2441 "/>
<polyline clip-path="url(#clip702)" style="stroke:#000000; stroke-linecap:round; stroke-linejoin:round; stroke-width:2; stroke-opacity:0.1; fill:none" points="867.565,1406.76 867.565,47.2441 "/>
<polyline clip-path="url(#clip702)" style="stroke:#000000; stroke-linecap:round; stroke-linejoin:round; stroke-width:2; stroke-opacity:0.1; fill:none" points="1159.36,1406.76 1159.36,47.2441 "/>
<polyline clip-path="url(#clip702)" style="stroke:#000000; stroke-linecap:round; stroke-linejoin:round; stroke-width:2; stroke-opacity:0.1; fill:none" points="1451.16,1406.76 1451.16,47.2441 "/>
<polyline clip-path="url(#clip702)" style="stroke:#000000; stroke-linecap:round; stroke-linejoin:round; stroke-width:2; stroke-opacity:0.1; fill:none" points="1742.96,1406.76 1742.96,47.2441 "/>
<polyline clip-path="url(#clip702)" style="stroke:#000000; stroke-linecap:round; stroke-linejoin:round; stroke-width:2; stroke-opacity:0.1; fill:none" points="292.87,1234.04 1952.76,1234.04 "/>
<polyline clip-path="url(#clip702)" style="stroke:#000000; stroke-linecap:round; stroke-linejoin:round; stroke-width:2; stroke-opacity:0.1; fill:none" points="292.87,1020.49 1952.76,1020.49 "/>
<polyline clip-path="url(#clip702)" style="stroke:#000000; stroke-linecap:round; stroke-linejoin:round; stroke-width:2; stroke-opacity:0.1; fill:none" points="292.87,806.936 1952.76,806.936 "/>
<polyline clip-path="url(#clip702)" style="stroke:#000000; stroke-linecap:round; stroke-linejoin:round; stroke-width:2; stroke-opacity:0.1; fill:none" points="292.87,593.385 1952.76,593.385 "/>
<polyline clip-path="url(#clip702)" style="stroke:#000000; stroke-linecap:round; stroke-linejoin:round; stroke-width:2; stroke-opacity:0.1; fill:none" points="292.87,379.833 1952.76,379.833 "/>
<polyline clip-path="url(#clip702)" style="stroke:#000000; stroke-linecap:round; stroke-linejoin:round; stroke-width:2; stroke-opacity:0.1; fill:none" points="292.87,166.282 1952.76,166.282 "/>
<polyline clip-path="url(#clip700)" style="stroke:#000000; stroke-linecap:round; stroke-linejoin:round; stroke-width:4; stroke-opacity:1; fill:none" points="292.87,1406.76 1952.76,1406.76 "/>
<polyline clip-path="url(#clip700)" style="stroke:#000000; stroke-linecap:round; stroke-linejoin:round; stroke-width:4; stroke-opacity:1; fill:none" points="575.768,1406.76 575.768,1387.87 "/>
<polyline clip-path="url(#clip700)" style="stroke:#000000; stroke-linecap:round; stroke-linejoin:round; stroke-width:4; stroke-opacity:1; fill:none" points="867.565,1406.76 867.565,1387.87 "/>
<polyline clip-path="url(#clip700)" style="stroke:#000000; stroke-linecap:round; stroke-linejoin:round; stroke-width:4; stroke-opacity:1; fill:none" points="1159.36,1406.76 1159.36,1387.87 "/>
<polyline clip-path="url(#clip700)" style="stroke:#000000; stroke-linecap:round; stroke-linejoin:round; stroke-width:4; stroke-opacity:1; fill:none" points="1451.16,1406.76 1451.16,1387.87 "/>
<polyline clip-path="url(#clip700)" style="stroke:#000000; stroke-linecap:round; stroke-linejoin:round; stroke-width:4; stroke-opacity:1; fill:none" points="1742.96,1406.76 1742.96,1387.87 "/>
<path clip-path="url(#clip700)" d="M507.713 1449.14 L537.388 1449.14 L537.388 1453.07 L507.713 1453.07 L507.713 1449.14 Z" fill="#000000" fill-rule="nonzero" fill-opacity="1" /><path clip-path="url(#clip700)" d="M557.481 1434.48 Q553.87 1434.48 552.041 1438.05 Q550.235 1441.59 550.235 1448.72 Q550.235 1455.83 552.041 1459.39 Q553.87 1462.93 557.481 1462.93 Q561.115 1462.93 562.921 1459.39 Q564.749 1455.83 564.749 1448.72 Q564.749 1441.59 562.921 1438.05 Q561.115 1434.48 557.481 1434.48 M557.481 1430.78 Q563.291 1430.78 566.346 1435.39 Q569.425 1439.97 569.425 1448.72 Q569.425 1457.45 566.346 1462.05 Q563.291 1466.64 557.481 1466.64 Q551.671 1466.64 548.592 1462.05 Q545.536 1457.45 545.536 1448.72 Q545.536 1439.97 548.592 1435.39 Q551.671 1430.78 557.481 1430.78 Z" fill="#000000" fill-rule="nonzero" fill-opacity="1" /><path clip-path="url(#clip700)" d="M577.643 1460.08 L582.527 1460.08 L582.527 1465.96 L577.643 1465.96 L577.643 1460.08 Z" fill="#000000" fill-rule="nonzero" fill-opacity="1" /><path clip-path="url(#clip700)" d="M596.74 1462.03 L613.059 1462.03 L613.059 1465.96 L591.115 1465.96 L591.115 1462.03 Q593.777 1459.27 598.36 1454.64 Q602.967 1449.99 604.147 1448.65 Q606.393 1446.13 607.272 1444.39 Q608.175 1442.63 608.175 1440.94 Q608.175 1438.19 606.231 1436.45 Q604.309 1434.71 601.207 1434.71 Q599.008 1434.71 596.555 1435.48 Q594.124 1436.24 591.346 1437.79 L591.346 1433.07 Q594.17 1431.94 596.624 1431.36 Q599.078 1430.78 601.115 1430.78 Q606.485 1430.78 609.68 1433.46 Q612.874 1436.15 612.874 1440.64 Q612.874 1442.77 612.064 1444.69 Q611.277 1446.59 609.17 1449.18 Q608.592 1449.85 605.49 1453.07 Q602.388 1456.26 596.74 1462.03 Z" fill="#000000" fill-rule="nonzero" fill-opacity="1" /><path clip-path="url(#clip700)" d="M622.92 1431.4 L641.277 1431.4 L641.277 1435.34 L627.203 1435.34 L627.203 1443.81 Q628.221 1443.46 629.24 1443.3 Q630.258 1443.12 631.277 1443.12 Q637.064 1443.12 640.443 1446.29 Q643.823 1449.46 643.823 1454.88 Q643.823 1460.45 640.351 1463.56 Q636.879 1466.64 630.559 1466.64 Q628.383 1466.64 626.115 1466.26 Q623.869 1465.89 621.462 1465.15 L621.462 1460.45 Q623.545 1461.59 625.767 1462.14 Q627.99 1462.7 630.467 1462.7 Q634.471 1462.7 636.809 1460.59 Q639.147 1458.49 639.147 1454.88 Q639.147 1451.26 636.809 1449.16 Q634.471 1447.05 630.467 1447.05 Q628.592 1447.05 626.717 1447.47 Q624.865 1447.89 622.92 1448.76 L622.92 1431.4 Z" fill="#000000" fill-rule="nonzero" fill-opacity="1" /><path clip-path="url(#clip700)" d="M829.868 1434.48 Q826.257 1434.48 824.428 1438.05 Q822.623 1441.59 822.623 1448.72 Q822.623 1455.83 824.428 1459.39 Q826.257 1462.93 829.868 1462.93 Q833.502 1462.93 835.308 1459.39 Q837.137 1455.83 837.137 1448.72 Q837.137 1441.59 835.308 1438.05 Q833.502 1434.48 829.868 1434.48 M829.868 1430.78 Q835.678 1430.78 838.734 1435.39 Q841.813 1439.97 841.813 1448.72 Q841.813 1457.45 838.734 1462.05 Q835.678 1466.64 829.868 1466.64 Q824.058 1466.64 820.979 1462.05 Q817.924 1457.45 817.924 1448.72 Q817.924 1439.97 820.979 1435.39 Q824.058 1430.78 829.868 1430.78 Z" fill="#000000" fill-rule="nonzero" fill-opacity="1" /><path clip-path="url(#clip700)" d="M850.03 1460.08 L854.914 1460.08 L854.914 1465.96 L850.03 1465.96 L850.03 1460.08 Z" fill="#000000" fill-rule="nonzero" fill-opacity="1" /><path clip-path="url(#clip700)" d="M875.099 1434.48 Q871.488 1434.48 869.66 1438.05 Q867.854 1441.59 867.854 1448.72 Q867.854 1455.83 869.66 1459.39 Q871.488 1462.93 875.099 1462.93 Q878.734 1462.93 880.539 1459.39 Q882.368 1455.83 882.368 1448.72 Q882.368 1441.59 880.539 1438.05 Q878.734 1434.48 875.099 1434.48 M875.099 1430.78 Q880.91 1430.78 883.965 1435.39 Q887.044 1439.97 887.044 1448.72 Q887.044 1457.45 883.965 1462.05 Q880.91 1466.64 875.099 1466.64 Q869.289 1466.64 866.211 1462.05 Q863.155 1457.45 863.155 1448.72 Q863.155 1439.97 866.211 1435.39 Q869.289 1430.78 875.099 1430.78 Z" fill="#000000" fill-rule="nonzero" fill-opacity="1" /><path clip-path="url(#clip700)" d="M905.261 1434.48 Q901.65 1434.48 899.821 1438.05 Q898.016 1441.59 898.016 1448.72 Q898.016 1455.83 899.821 1459.39 Q901.65 1462.93 905.261 1462.93 Q908.896 1462.93 910.701 1459.39 Q912.53 1455.83 912.53 1448.72 Q912.53 1441.59 910.701 1438.05 Q908.896 1434.48 905.261 1434.48 M905.261 1430.78 Q911.071 1430.78 914.127 1435.39 Q917.206 1439.97 917.206 1448.72 Q917.206 1457.45 914.127 1462.05 Q911.071 1466.64 905.261 1466.64 Q899.451 1466.64 896.372 1462.05 Q893.317 1457.45 893.317 1448.72 Q893.317 1439.97 896.372 1435.39 Q899.451 1430.78 905.261 1430.78 Z" fill="#000000" fill-rule="nonzero" fill-opacity="1" /><path clip-path="url(#clip700)" d="M1122.16 1434.48 Q1118.55 1434.48 1116.72 1438.05 Q1114.92 1441.59 1114.92 1448.72 Q1114.92 1455.83 1116.72 1459.39 Q1118.55 1462.93 1122.16 1462.93 Q1125.8 1462.93 1127.6 1459.39 Q1129.43 1455.83 1129.43 1448.72 Q1129.43 1441.59 1127.6 1438.05 Q1125.8 1434.48 1122.16 1434.48 M1122.16 1430.78 Q1127.97 1430.78 1131.03 1435.39 Q1134.11 1439.97 1134.11 1448.72 Q1134.11 1457.45 1131.03 1462.05 Q1127.97 1466.64 1122.16 1466.64 Q1116.35 1466.64 1113.27 1462.05 Q1110.22 1457.45 1110.22 1448.72 Q1110.22 1439.97 1113.27 1435.39 Q1116.35 1430.78 1122.16 1430.78 Z" fill="#000000" fill-rule="nonzero" fill-opacity="1" /><path clip-path="url(#clip700)" d="M1142.32 1460.08 L1147.21 1460.08 L1147.21 1465.96 L1142.32 1465.96 L1142.32 1460.08 Z" fill="#000000" fill-rule="nonzero" fill-opacity="1" /><path clip-path="url(#clip700)" d="M1161.42 1462.03 L1177.74 1462.03 L1177.74 1465.96 L1155.8 1465.96 L1155.8 1462.03 Q1158.46 1459.27 1163.04 1454.64 Q1167.65 1449.99 1168.83 1448.65 Q1171.07 1446.13 1171.95 1444.39 Q1172.86 1442.63 1172.86 1440.94 Q1172.86 1438.19 1170.91 1436.45 Q1168.99 1434.71 1165.89 1434.71 Q1163.69 1434.71 1161.24 1435.48 Q1158.81 1436.24 1156.03 1437.79 L1156.03 1433.07 Q1158.85 1431.94 1161.31 1431.36 Q1163.76 1430.78 1165.8 1430.78 Q1171.17 1430.78 1174.36 1433.46 Q1177.56 1436.15 1177.56 1440.64 Q1177.56 1442.77 1176.75 1444.69 Q1175.96 1446.59 1173.85 1449.18 Q1173.27 1449.85 1170.17 1453.07 Q1167.07 1456.26 1161.42 1462.03 Z" fill="#000000" fill-rule="nonzero" fill-opacity="1" /><path clip-path="url(#clip700)" d="M1187.6 1431.4 L1205.96 1431.4 L1205.96 1435.34 L1191.88 1435.34 L1191.88 1443.81 Q1192.9 1443.46 1193.92 1443.3 Q1194.94 1443.12 1195.96 1443.12 Q1201.75 1443.12 1205.13 1446.29 Q1208.5 1449.46 1208.5 1454.88 Q1208.5 1460.45 1205.03 1463.56 Q1201.56 1466.64 1195.24 1466.64 Q1193.07 1466.64 1190.8 1466.26 Q1188.55 1465.89 1186.14 1465.15 L1186.14 1460.45 Q1188.23 1461.59 1190.45 1462.14 Q1192.67 1462.7 1195.15 1462.7 Q1199.15 1462.7 1201.49 1460.59 Q1203.83 1458.49 1203.83 1454.88 Q1203.83 1451.26 1201.49 1449.16 Q1199.15 1447.05 1195.15 1447.05 Q1193.27 1447.05 1191.4 1447.47 Q1189.55 1447.89 1187.6 1448.76 L1187.6 1431.4 Z" fill="#000000" fill-rule="nonzero" fill-opacity="1" /><path clip-path="url(#clip700)" d="M1413.46 1434.48 Q1409.85 1434.48 1408.02 1438.05 Q1406.22 1441.59 1406.22 1448.72 Q1406.22 1455.83 1408.02 1459.39 Q1409.85 1462.93 1413.46 1462.93 Q1417.1 1462.93 1418.9 1459.39 Q1420.73 1455.83 1420.73 1448.72 Q1420.73 1441.59 1418.9 1438.05 Q1417.1 1434.48 1413.46 1434.48 M1413.46 1430.78 Q1419.27 1430.78 1422.33 1435.39 Q1425.41 1439.97 1425.41 1448.72 Q1425.41 1457.45 1422.33 1462.05 Q1419.27 1466.64 1413.46 1466.64 Q1407.65 1466.64 1404.57 1462.05 Q1401.52 1457.45 1401.52 1448.72 Q1401.52 1439.97 1404.57 1435.39 Q1407.65 1430.78 1413.46 1430.78 Z" fill="#000000" fill-rule="nonzero" fill-opacity="1" /><path clip-path="url(#clip700)" d="M1433.62 1460.08 L1438.51 1460.08 L1438.51 1465.96 L1433.62 1465.96 L1433.62 1460.08 Z" fill="#000000" fill-rule="nonzero" fill-opacity="1" /><path clip-path="url(#clip700)" d="M1448.74 1431.4 L1467.1 1431.4 L1467.1 1435.34 L1453.02 1435.34 L1453.02 1443.81 Q1454.04 1443.46 1455.06 1443.3 Q1456.08 1443.12 1457.1 1443.12 Q1462.88 1443.12 1466.26 1446.29 Q1469.64 1449.46 1469.64 1454.88 Q1469.64 1460.45 1466.17 1463.56 Q1462.7 1466.64 1456.38 1466.64 Q1454.2 1466.64 1451.93 1466.26 Q1449.69 1465.89 1447.28 1465.15 L1447.28 1460.45 Q1449.36 1461.59 1451.59 1462.14 Q1453.81 1462.7 1456.29 1462.7 Q1460.29 1462.7 1462.63 1460.59 Q1464.97 1458.49 1464.97 1454.88 Q1464.97 1451.26 1462.63 1449.16 Q1460.29 1447.05 1456.29 1447.05 Q1454.41 1447.05 1452.54 1447.47 Q1450.68 1447.89 1448.74 1448.76 L1448.74 1431.4 Z" fill="#000000" fill-rule="nonzero" fill-opacity="1" /><path clip-path="url(#clip700)" d="M1488.86 1434.48 Q1485.24 1434.48 1483.42 1438.05 Q1481.61 1441.59 1481.61 1448.72 Q1481.61 1455.83 1483.42 1459.39 Q1485.24 1462.93 1488.86 1462.93 Q1492.49 1462.93 1494.3 1459.39 Q1496.12 1455.83 1496.12 1448.72 Q1496.12 1441.59 1494.3 1438.05 Q1492.49 1434.48 1488.86 1434.48 M1488.86 1430.78 Q1494.67 1430.78 1497.72 1435.39 Q1500.8 1439.97 1500.8 1448.72 Q1500.8 1457.45 1497.72 1462.05 Q1494.67 1466.64 1488.86 1466.64 Q1483.05 1466.64 1479.97 1462.05 Q1476.91 1457.45 1476.91 1448.72 Q1476.91 1439.97 1479.97 1435.39 Q1483.05 1430.78 1488.86 1430.78 Z" fill="#000000" fill-rule="nonzero" fill-opacity="1" /><path clip-path="url(#clip700)" d="M1705.76 1434.48 Q1702.15 1434.48 1700.32 1438.05 Q1698.51 1441.59 1698.51 1448.72 Q1698.51 1455.83 1700.32 1459.39 Q1702.15 1462.93 1705.76 1462.93 Q1709.39 1462.93 1711.2 1459.39 Q1713.03 1455.83 1713.03 1448.72 Q1713.03 1441.59 1711.2 1438.05 Q1709.39 1434.48 1705.76 1434.48 M1705.76 1430.78 Q1711.57 1430.78 1714.62 1435.39 Q1717.7 1439.97 1717.7 1448.72 Q1717.7 1457.45 1714.62 1462.05 Q1711.57 1466.64 1705.76 1466.64 Q1699.95 1466.64 1696.87 1462.05 Q1693.81 1457.45 1693.81 1448.72 Q1693.81 1439.97 1696.87 1435.39 Q1699.95 1430.78 1705.76 1430.78 Z" fill="#000000" fill-rule="nonzero" fill-opacity="1" /><path clip-path="url(#clip700)" d="M1725.92 1460.08 L1730.8 1460.08 L1730.8 1465.96 L1725.92 1465.96 L1725.92 1460.08 Z" fill="#000000" fill-rule="nonzero" fill-opacity="1" /><path clip-path="url(#clip700)" d="M1739.81 1431.4 L1762.03 1431.4 L1762.03 1433.39 L1749.48 1465.96 L1744.6 1465.96 L1756.4 1435.34 L1739.81 1435.34 L1739.81 1431.4 Z" fill="#000000" fill-rule="nonzero" fill-opacity="1" /><path clip-path="url(#clip700)" d="M1771.2 1431.4 L1789.55 1431.4 L1789.55 1435.34 L1775.48 1435.34 L1775.48 1443.81 Q1776.5 1443.46 1777.52 1443.3 Q1778.53 1443.12 1779.55 1443.12 Q1785.34 1443.12 1788.72 1446.29 Q1792.1 1449.46 1792.1 1454.88 Q1792.1 1460.45 1788.63 1463.56 Q1785.15 1466.64 1778.84 1466.64 Q1776.66 1466.64 1774.39 1466.26 Q1772.15 1465.89 1769.74 1465.15 L1769.74 1460.45 Q1771.82 1461.59 1774.04 1462.14 Q1776.27 1462.7 1778.74 1462.7 Q1782.75 1462.7 1785.09 1460.59 Q1787.42 1458.49 1787.42 1454.88 Q1787.42 1451.26 1785.09 1449.16 Q1782.75 1447.05 1778.74 1447.05 Q1776.87 1447.05 1774.99 1447.47 Q1773.14 1447.89 1771.2 1448.76 L1771.2 1431.4 Z" fill="#000000" fill-rule="nonzero" fill-opacity="1" /><path clip-path="url(#clip700)" d="M1008.25 1509.98 L1014.1 1509.98 L1014.1 1545.63 L1008.25 1545.63 L1008.25 1509.98 M1008.25 1496.1 L1014.1 1496.1 L1014.1 1503.52 L1008.25 1503.52 L1008.25 1496.1 Z" fill="#000000" fill-rule="nonzero" fill-opacity="1" /><path clip-path="url(#clip700)" d="M1055.99 1524.11 L1055.99 1545.63 L1050.13 1545.63 L1050.13 1524.3 Q1050.13 1519.24 1048.16 1516.73 Q1046.19 1514.21 1042.24 1514.21 Q1037.5 1514.21 1034.76 1517.24 Q1032.02 1520.26 1032.02 1525.48 L1032.02 1545.63 L1026.13 1545.63 L1026.13 1509.98 L1032.02 1509.98 L1032.02 1515.52 Q1034.12 1512.3 1036.96 1510.71 Q1039.82 1509.12 1043.54 1509.12 Q1049.69 1509.12 1052.84 1512.94 Q1055.99 1516.73 1055.99 1524.11 Z" fill="#000000" fill-rule="nonzero" fill-opacity="1" /><path clip-path="url(#clip700)" d="M1093.32 1511.35 L1093.32 1516.82 Q1090.84 1515.45 1088.33 1514.79 Q1085.84 1514.09 1083.3 1514.09 Q1077.6 1514.09 1074.45 1517.71 Q1071.3 1521.31 1071.3 1527.84 Q1071.3 1534.36 1074.45 1537.99 Q1077.6 1541.59 1083.3 1541.59 Q1085.84 1541.59 1088.33 1540.92 Q1090.84 1540.22 1093.32 1538.85 L1093.32 1544.26 Q1090.87 1545.41 1088.23 1545.98 Q1085.62 1546.55 1082.66 1546.55 Q1074.61 1546.55 1069.87 1541.49 Q1065.12 1536.43 1065.12 1527.84 Q1065.12 1519.11 1069.9 1514.12 Q1074.7 1509.12 1083.04 1509.12 Q1085.75 1509.12 1088.33 1509.69 Q1090.9 1510.23 1093.32 1511.35 Z" fill="#000000" fill-rule="nonzero" fill-opacity="1" /><path clip-path="url(#clip700)" d="M1117.32 1514.09 Q1112.61 1514.09 1109.87 1517.78 Q1107.14 1521.44 1107.14 1527.84 Q1107.14 1534.23 1109.84 1537.93 Q1112.58 1541.59 1117.32 1541.59 Q1122 1541.59 1124.74 1537.89 Q1127.48 1534.2 1127.48 1527.84 Q1127.48 1521.5 1124.74 1517.81 Q1122 1514.09 1117.32 1514.09 M1117.32 1509.12 Q1124.96 1509.12 1129.32 1514.09 Q1133.68 1519.05 1133.68 1527.84 Q1133.68 1536.59 1129.32 1541.59 Q1124.96 1546.55 1117.32 1546.55 Q1109.65 1546.55 1105.29 1541.59 Q1100.96 1536.59 1100.96 1527.84 Q1100.96 1519.05 1105.29 1514.09 Q1109.65 1509.12 1117.32 1509.12 Z" fill="#000000" fill-rule="nonzero" fill-opacity="1" /><path clip-path="url(#clip700)" d="M1171.14 1516.82 Q1173.34 1512.88 1176.4 1511 Q1179.45 1509.12 1183.59 1509.12 Q1189.16 1509.12 1192.18 1513.04 Q1195.21 1516.92 1195.21 1524.11 L1195.21 1545.63 L1189.32 1545.63 L1189.32 1524.3 Q1189.32 1519.18 1187.5 1516.7 Q1185.69 1514.21 1181.97 1514.21 Q1177.41 1514.21 1174.77 1517.24 Q1172.13 1520.26 1172.13 1525.48 L1172.13 1545.63 L1166.24 1545.63 L1166.24 1524.3 Q1166.24 1519.15 1164.43 1516.7 Q1162.61 1514.21 1158.83 1514.21 Q1154.34 1514.21 1151.7 1517.27 Q1149.06 1520.29 1149.06 1525.48 L1149.06 1545.63 L1143.17 1545.63 L1143.17 1509.98 L1149.06 1509.98 L1149.06 1515.52 Q1151.06 1512.24 1153.86 1510.68 Q1156.66 1509.12 1160.51 1509.12 Q1164.4 1509.12 1167.1 1511.09 Q1169.84 1513.07 1171.14 1516.82 Z" fill="#000000" fill-rule="nonzero" fill-opacity="1" /><path clip-path="url(#clip700)" d="M1237.38 1526.34 L1237.38 1529.2 L1210.45 1529.2 Q1210.83 1535.25 1214.08 1538.43 Q1217.36 1541.59 1223.18 1541.59 Q1226.56 1541.59 1229.71 1540.76 Q1232.89 1539.93 1236.01 1538.28 L1236.01 1543.81 Q1232.86 1545.15 1229.55 1545.85 Q1226.24 1546.55 1222.83 1546.55 Q1214.3 1546.55 1209.31 1541.59 Q1204.34 1536.62 1204.34 1528.15 Q1204.34 1519.4 1209.05 1514.28 Q1213.79 1509.12 1221.82 1509.12 Q1229.01 1509.12 1233.18 1513.77 Q1237.38 1518.38 1237.38 1526.34 M1231.52 1524.62 Q1231.46 1519.81 1228.82 1516.95 Q1226.21 1514.09 1221.88 1514.09 Q1216.98 1514.09 1214.02 1516.85 Q1211.09 1519.62 1210.64 1524.65 L1231.52 1524.62 Z" fill="#000000" fill-rule="nonzero" fill-opacity="1" /><polyline clip-path="url(#clip700)" style="stroke:#000000; stroke-linecap:round; stroke-linejoin:round; stroke-width:4; stroke-opacity:1; fill:none" points="292.87,1406.76 292.87,47.2441 "/>
<polyline clip-path="url(#clip700)" style="stroke:#000000; stroke-linecap:round; stroke-linejoin:round; stroke-width:4; stroke-opacity:1; fill:none" points="292.87,1234.04 311.768,1234.04 "/>
<polyline clip-path="url(#clip700)" style="stroke:#000000; stroke-linecap:round; stroke-linejoin:round; stroke-width:4; stroke-opacity:1; fill:none" points="292.87,1020.49 311.768,1020.49 "/>
<polyline clip-path="url(#clip700)" style="stroke:#000000; stroke-linecap:round; stroke-linejoin:round; stroke-width:4; stroke-opacity:1; fill:none" points="292.87,806.936 311.768,806.936 "/>
<polyline clip-path="url(#clip700)" style="stroke:#000000; stroke-linecap:round; stroke-linejoin:round; stroke-width:4; stroke-opacity:1; fill:none" points="292.87,593.385 311.768,593.385 "/>
<polyline clip-path="url(#clip700)" style="stroke:#000000; stroke-linecap:round; stroke-linejoin:round; stroke-width:4; stroke-opacity:1; fill:none" points="292.87,379.833 311.768,379.833 "/>
<polyline clip-path="url(#clip700)" style="stroke:#000000; stroke-linecap:round; stroke-linejoin:round; stroke-width:4; stroke-opacity:1; fill:none" points="292.87,166.282 311.768,166.282 "/>
<path clip-path="url(#clip700)" d="M126.76 1234.49 L156.435 1234.49 L156.435 1238.42 L126.76 1238.42 L126.76 1234.49 Z" fill="#000000" fill-rule="nonzero" fill-opacity="1" /><path clip-path="url(#clip700)" d="M176.528 1219.84 Q172.917 1219.84 171.088 1223.4 Q169.282 1226.94 169.282 1234.07 Q169.282 1241.18 171.088 1244.74 Q172.917 1248.29 176.528 1248.29 Q180.162 1248.29 181.968 1244.74 Q183.796 1241.18 183.796 1234.07 Q183.796 1226.94 181.968 1223.4 Q180.162 1219.84 176.528 1219.84 M176.528 1216.13 Q182.338 1216.13 185.393 1220.74 Q188.472 1225.32 188.472 1234.07 Q188.472 1242.8 185.393 1247.41 Q182.338 1251.99 176.528 1251.99 Q170.718 1251.99 167.639 1247.41 Q164.583 1242.8 164.583 1234.07 Q164.583 1225.32 167.639 1220.74 Q170.718 1216.13 176.528 1216.13 Z" fill="#000000" fill-rule="nonzero" fill-opacity="1" /><path clip-path="url(#clip700)" d="M196.69 1245.44 L201.574 1245.44 L201.574 1251.32 L196.69 1251.32 L196.69 1245.44 Z" fill="#000000" fill-rule="nonzero" fill-opacity="1" /><path clip-path="url(#clip700)" d="M210.579 1216.76 L232.801 1216.76 L232.801 1218.75 L220.254 1251.32 L215.37 1251.32 L227.176 1220.69 L210.579 1220.69 L210.579 1216.76 Z" fill="#000000" fill-rule="nonzero" fill-opacity="1" /><path clip-path="url(#clip700)" d="M241.967 1216.76 L260.324 1216.76 L260.324 1220.69 L246.25 1220.69 L246.25 1229.17 Q247.268 1228.82 248.287 1228.66 Q249.305 1228.47 250.324 1228.47 Q256.111 1228.47 259.49 1231.64 Q262.87 1234.81 262.87 1240.23 Q262.87 1245.81 259.398 1248.91 Q255.925 1251.99 249.606 1251.99 Q247.43 1251.99 245.162 1251.62 Q242.916 1251.25 240.509 1250.51 L240.509 1245.81 Q242.592 1246.94 244.814 1247.5 Q247.037 1248.05 249.513 1248.05 Q253.518 1248.05 255.856 1245.95 Q258.194 1243.84 258.194 1240.23 Q258.194 1236.62 255.856 1234.51 Q253.518 1232.41 249.513 1232.41 Q247.639 1232.41 245.764 1232.82 Q243.912 1233.24 241.967 1234.12 L241.967 1216.76 Z" fill="#000000" fill-rule="nonzero" fill-opacity="1" /><path clip-path="url(#clip700)" d="M125.764 1020.94 L155.44 1020.94 L155.44 1024.87 L125.764 1024.87 L125.764 1020.94 Z" fill="#000000" fill-rule="nonzero" fill-opacity="1" /><path clip-path="url(#clip700)" d="M175.532 1006.29 Q171.921 1006.29 170.093 1009.85 Q168.287 1013.39 168.287 1020.52 Q168.287 1027.63 170.093 1031.19 Q171.921 1034.73 175.532 1034.73 Q179.167 1034.73 180.972 1031.19 Q182.801 1027.63 182.801 1020.52 Q182.801 1013.39 180.972 1009.85 Q179.167 1006.29 175.532 1006.29 M175.532 1002.58 Q181.343 1002.58 184.398 1007.19 Q187.477 1011.77 187.477 1020.52 Q187.477 1029.25 184.398 1033.85 Q181.343 1038.44 175.532 1038.44 Q169.722 1038.44 166.644 1033.85 Q163.588 1029.25 163.588 1020.52 Q163.588 1011.77 166.644 1007.19 Q169.722 1002.58 175.532 1002.58 Z" fill="#000000" fill-rule="nonzero" fill-opacity="1" /><path clip-path="url(#clip700)" d="M195.694 1031.89 L200.579 1031.89 L200.579 1037.77 L195.694 1037.77 L195.694 1031.89 Z" fill="#000000" fill-rule="nonzero" fill-opacity="1" /><path clip-path="url(#clip700)" d="M210.81 1003.21 L229.166 1003.21 L229.166 1007.14 L215.092 1007.14 L215.092 1015.61 Q216.111 1015.27 217.129 1015.11 Q218.148 1014.92 219.166 1014.92 Q224.953 1014.92 228.333 1018.09 Q231.713 1021.26 231.713 1026.68 Q231.713 1032.26 228.24 1035.36 Q224.768 1038.44 218.449 1038.44 Q216.273 1038.44 214.004 1038.07 Q211.759 1037.7 209.352 1036.96 L209.352 1032.26 Q211.435 1033.39 213.657 1033.95 Q215.879 1034.5 218.356 1034.5 Q222.361 1034.5 224.699 1032.4 Q227.037 1030.29 227.037 1026.68 Q227.037 1023.07 224.699 1020.96 Q222.361 1018.86 218.356 1018.86 Q216.481 1018.86 214.606 1019.27 Q212.754 1019.69 210.81 1020.57 L210.81 1003.21 Z" fill="#000000" fill-rule="nonzero" fill-opacity="1" /><path clip-path="url(#clip700)" d="M250.926 1006.29 Q247.314 1006.29 245.486 1009.85 Q243.68 1013.39 243.68 1020.52 Q243.68 1027.63 245.486 1031.19 Q247.314 1034.73 250.926 1034.73 Q254.56 1034.73 256.365 1031.19 Q258.194 1027.63 258.194 1020.52 Q258.194 1013.39 256.365 1009.85 Q254.56 1006.29 250.926 1006.29 M250.926 1002.58 Q256.736 1002.58 259.791 1007.19 Q262.87 1011.77 262.87 1020.52 Q262.87 1029.25 259.791 1033.85 Q256.736 1038.44 250.926 1038.44 Q245.115 1038.44 242.037 1033.85 Q238.981 1029.25 238.981 1020.52 Q238.981 1011.77 242.037 1007.19 Q245.115 1002.58 250.926 1002.58 Z" fill="#000000" fill-rule="nonzero" fill-opacity="1" /><path clip-path="url(#clip700)" d="M126.76 807.387 L156.435 807.387 L156.435 811.322 L126.76 811.322 L126.76 807.387 Z" fill="#000000" fill-rule="nonzero" fill-opacity="1" /><path clip-path="url(#clip700)" d="M176.528 792.735 Q172.917 792.735 171.088 796.299 Q169.282 799.841 169.282 806.971 Q169.282 814.077 171.088 817.642 Q172.917 821.183 176.528 821.183 Q180.162 821.183 181.968 817.642 Q183.796 814.077 183.796 806.971 Q183.796 799.841 181.968 796.299 Q180.162 792.735 176.528 792.735 M176.528 789.031 Q182.338 789.031 185.393 793.637 Q188.472 798.221 188.472 806.971 Q188.472 815.697 185.393 820.304 Q182.338 824.887 176.528 824.887 Q170.718 824.887 167.639 820.304 Q164.583 815.697 164.583 806.971 Q164.583 798.221 167.639 793.637 Q170.718 789.031 176.528 789.031 Z" fill="#000000" fill-rule="nonzero" fill-opacity="1" /><path clip-path="url(#clip700)" d="M196.69 818.336 L201.574 818.336 L201.574 824.216 L196.69 824.216 L196.69 818.336 Z" fill="#000000" fill-rule="nonzero" fill-opacity="1" /><path clip-path="url(#clip700)" d="M215.787 820.281 L232.106 820.281 L232.106 824.216 L210.162 824.216 L210.162 820.281 Q212.824 817.526 217.407 812.896 Q222.014 808.244 223.194 806.901 Q225.44 804.378 226.319 802.642 Q227.222 800.883 227.222 799.193 Q227.222 796.438 225.278 794.702 Q223.356 792.966 220.254 792.966 Q218.055 792.966 215.602 793.73 Q213.171 794.494 210.393 796.045 L210.393 791.322 Q213.217 790.188 215.671 789.61 Q218.125 789.031 220.162 789.031 Q225.532 789.031 228.727 791.716 Q231.921 794.401 231.921 798.892 Q231.921 801.021 231.111 802.943 Q230.324 804.841 228.217 807.433 Q227.639 808.105 224.537 811.322 Q221.435 814.517 215.787 820.281 Z" fill="#000000" fill-rule="nonzero" fill-opacity="1" /><path clip-path="url(#clip700)" d="M241.967 789.656 L260.324 789.656 L260.324 793.591 L246.25 793.591 L246.25 802.063 Q247.268 801.716 248.287 801.554 Q249.305 801.369 250.324 801.369 Q256.111 801.369 259.49 804.54 Q262.87 807.711 262.87 813.128 Q262.87 818.707 259.398 821.808 Q255.925 824.887 249.606 824.887 Q247.43 824.887 245.162 824.517 Q242.916 824.146 240.509 823.406 L240.509 818.707 Q242.592 819.841 244.814 820.396 Q247.037 820.952 249.513 820.952 Q253.518 820.952 255.856 818.845 Q258.194 816.739 258.194 813.128 Q258.194 809.517 255.856 807.41 Q253.518 805.304 249.513 805.304 Q247.639 805.304 245.764 805.721 Q243.912 806.137 241.967 807.017 L241.967 789.656 Z" fill="#000000" fill-rule="nonzero" fill-opacity="1" /><path clip-path="url(#clip700)" d="M175.532 579.183 Q171.921 579.183 170.093 582.748 Q168.287 586.29 168.287 593.419 Q168.287 600.526 170.093 604.091 Q171.921 607.632 175.532 607.632 Q179.167 607.632 180.972 604.091 Q182.801 600.526 182.801 593.419 Q182.801 586.29 180.972 582.748 Q179.167 579.183 175.532 579.183 M175.532 575.48 Q181.343 575.48 184.398 580.086 Q187.477 584.669 187.477 593.419 Q187.477 602.146 184.398 606.753 Q181.343 611.336 175.532 611.336 Q169.722 611.336 166.644 606.753 Q163.588 602.146 163.588 593.419 Q163.588 584.669 166.644 580.086 Q169.722 575.48 175.532 575.48 Z" fill="#000000" fill-rule="nonzero" fill-opacity="1" /><path clip-path="url(#clip700)" d="M195.694 604.785 L200.579 604.785 L200.579 610.665 L195.694 610.665 L195.694 604.785 Z" fill="#000000" fill-rule="nonzero" fill-opacity="1" /><path clip-path="url(#clip700)" d="M220.764 579.183 Q217.153 579.183 215.324 582.748 Q213.518 586.29 213.518 593.419 Q213.518 600.526 215.324 604.091 Q217.153 607.632 220.764 607.632 Q224.398 607.632 226.203 604.091 Q228.032 600.526 228.032 593.419 Q228.032 586.29 226.203 582.748 Q224.398 579.183 220.764 579.183 M220.764 575.48 Q226.574 575.48 229.629 580.086 Q232.708 584.669 232.708 593.419 Q232.708 602.146 229.629 606.753 Q226.574 611.336 220.764 611.336 Q214.953 611.336 211.875 606.753 Q208.819 602.146 208.819 593.419 Q208.819 584.669 211.875 580.086 Q214.953 575.48 220.764 575.48 Z" fill="#000000" fill-rule="nonzero" fill-opacity="1" /><path clip-path="url(#clip700)" d="M250.926 579.183 Q247.314 579.183 245.486 582.748 Q243.68 586.29 243.68 593.419 Q243.68 600.526 245.486 604.091 Q247.314 607.632 250.926 607.632 Q254.56 607.632 256.365 604.091 Q258.194 600.526 258.194 593.419 Q258.194 586.29 256.365 582.748 Q254.56 579.183 250.926 579.183 M250.926 575.48 Q256.736 575.48 259.791 580.086 Q262.87 584.669 262.87 593.419 Q262.87 602.146 259.791 606.753 Q256.736 611.336 250.926 611.336 Q245.115 611.336 242.037 606.753 Q238.981 602.146 238.981 593.419 Q238.981 584.669 242.037 580.086 Q245.115 575.48 250.926 575.48 Z" fill="#000000" fill-rule="nonzero" fill-opacity="1" /><path clip-path="url(#clip700)" d="M176.528 365.632 Q172.917 365.632 171.088 369.197 Q169.282 372.739 169.282 379.868 Q169.282 386.975 171.088 390.539 Q172.917 394.081 176.528 394.081 Q180.162 394.081 181.968 390.539 Q183.796 386.975 183.796 379.868 Q183.796 372.739 181.968 369.197 Q180.162 365.632 176.528 365.632 M176.528 361.928 Q182.338 361.928 185.393 366.535 Q188.472 371.118 188.472 379.868 Q188.472 388.595 185.393 393.201 Q182.338 397.785 176.528 397.785 Q170.718 397.785 167.639 393.201 Q164.583 388.595 164.583 379.868 Q164.583 371.118 167.639 366.535 Q170.718 361.928 176.528 361.928 Z" fill="#000000" fill-rule="nonzero" fill-opacity="1" /><path clip-path="url(#clip700)" d="M196.69 391.234 L201.574 391.234 L201.574 397.113 L196.69 397.113 L196.69 391.234 Z" fill="#000000" fill-rule="nonzero" fill-opacity="1" /><path clip-path="url(#clip700)" d="M215.787 393.178 L232.106 393.178 L232.106 397.113 L210.162 397.113 L210.162 393.178 Q212.824 390.424 217.407 385.794 Q222.014 381.141 223.194 379.799 Q225.44 377.276 226.319 375.54 Q227.222 373.78 227.222 372.09 Q227.222 369.336 225.278 367.6 Q223.356 365.864 220.254 365.864 Q218.055 365.864 215.602 366.628 Q213.171 367.391 210.393 368.942 L210.393 364.22 Q213.217 363.086 215.671 362.507 Q218.125 361.928 220.162 361.928 Q225.532 361.928 228.727 364.614 Q231.921 367.299 231.921 371.79 Q231.921 373.919 231.111 375.84 Q230.324 377.739 228.217 380.331 Q227.639 381.002 224.537 384.22 Q221.435 387.414 215.787 393.178 Z" fill="#000000" fill-rule="nonzero" fill-opacity="1" /><path clip-path="url(#clip700)" d="M241.967 362.553 L260.324 362.553 L260.324 366.489 L246.25 366.489 L246.25 374.961 Q247.268 374.614 248.287 374.452 Q249.305 374.266 250.324 374.266 Q256.111 374.266 259.49 377.438 Q262.87 380.609 262.87 386.026 Q262.87 391.604 259.398 394.706 Q255.925 397.785 249.606 397.785 Q247.43 397.785 245.162 397.414 Q242.916 397.044 240.509 396.303 L240.509 391.604 Q242.592 392.739 244.814 393.294 Q247.037 393.85 249.513 393.85 Q253.518 393.85 255.856 391.743 Q258.194 389.637 258.194 386.026 Q258.194 382.414 255.856 380.308 Q253.518 378.202 249.513 378.202 Q247.639 378.202 245.764 378.618 Q243.912 379.035 241.967 379.915 L241.967 362.553 Z" fill="#000000" fill-rule="nonzero" fill-opacity="1" /><path clip-path="url(#clip700)" d="M175.532 152.081 Q171.921 152.081 170.093 155.646 Q168.287 159.187 168.287 166.317 Q168.287 173.423 170.093 176.988 Q171.921 180.53 175.532 180.53 Q179.167 180.53 180.972 176.988 Q182.801 173.423 182.801 166.317 Q182.801 159.187 180.972 155.646 Q179.167 152.081 175.532 152.081 M175.532 148.377 Q181.343 148.377 184.398 152.984 Q187.477 157.567 187.477 166.317 Q187.477 175.044 184.398 179.65 Q181.343 184.234 175.532 184.234 Q169.722 184.234 166.644 179.65 Q163.588 175.044 163.588 166.317 Q163.588 157.567 166.644 152.984 Q169.722 148.377 175.532 148.377 Z" fill="#000000" fill-rule="nonzero" fill-opacity="1" /><path clip-path="url(#clip700)" d="M195.694 177.683 L200.579 177.683 L200.579 183.562 L195.694 183.562 L195.694 177.683 Z" fill="#000000" fill-rule="nonzero" fill-opacity="1" /><path clip-path="url(#clip700)" d="M210.81 149.002 L229.166 149.002 L229.166 152.937 L215.092 152.937 L215.092 161.41 Q216.111 161.062 217.129 160.9 Q218.148 160.715 219.166 160.715 Q224.953 160.715 228.333 163.886 Q231.713 167.058 231.713 172.474 Q231.713 178.053 228.24 181.155 Q224.768 184.234 218.449 184.234 Q216.273 184.234 214.004 183.863 Q211.759 183.493 209.352 182.752 L209.352 178.053 Q211.435 179.187 213.657 179.743 Q215.879 180.298 218.356 180.298 Q222.361 180.298 224.699 178.192 Q227.037 176.086 227.037 172.474 Q227.037 168.863 224.699 166.757 Q222.361 164.65 218.356 164.65 Q216.481 164.65 214.606 165.067 Q212.754 165.484 210.81 166.363 L210.81 149.002 Z" fill="#000000" fill-rule="nonzero" fill-opacity="1" /><path clip-path="url(#clip700)" d="M250.926 152.081 Q247.314 152.081 245.486 155.646 Q243.68 159.187 243.68 166.317 Q243.68 173.423 245.486 176.988 Q247.314 180.53 250.926 180.53 Q254.56 180.53 256.365 176.988 Q258.194 173.423 258.194 166.317 Q258.194 159.187 256.365 155.646 Q254.56 152.081 250.926 152.081 M250.926 148.377 Q256.736 148.377 259.791 152.984 Q262.87 157.567 262.87 166.317 Q262.87 175.044 259.791 179.65 Q256.736 184.234 250.926 184.234 Q245.115 184.234 242.037 179.65 Q238.981 175.044 238.981 166.317 Q238.981 157.567 242.037 152.984 Q245.115 148.377 250.926 148.377 Z" fill="#000000" fill-rule="nonzero" fill-opacity="1" /><path clip-path="url(#clip700)" d="M63.5887 765.596 Q63.5887 772.694 65.2119 775.431 Q66.8352 778.168 70.7501 778.168 Q73.8693 778.168 75.7154 776.131 Q77.5296 774.062 77.5296 770.529 Q77.5296 765.66 74.0921 762.731 Q70.6228 759.771 64.8937 759.771 L63.5887 759.771 L63.5887 765.596 M61.1697 753.915 L81.5082 753.915 L81.5082 759.771 L76.0973 759.771 Q79.3438 761.777 80.9034 764.769 Q82.4312 767.76 82.4312 772.089 Q82.4312 777.564 79.3756 780.81 Q76.2883 784.025 71.1321 784.025 Q65.1165 784.025 62.0609 780.014 Q59.0054 775.972 59.0054 767.983 L59.0054 759.771 L58.4325 759.771 Q54.3902 759.771 52.1941 762.445 Q49.9661 765.087 49.9661 769.893 Q49.9661 772.948 50.6981 775.845 Q51.4302 778.741 52.8943 781.415 L47.4835 781.415 Q46.2421 778.2 45.6374 775.176 Q45.0008 772.153 45.0008 769.288 Q45.0008 761.554 49.0112 757.734 Q53.0216 753.915 61.1697 753.915 Z" fill="#000000" fill-rule="nonzero" fill-opacity="1" /><path clip-path="url(#clip700)" d="M63.2704 718.394 Q56.9047 718.394 53.4036 721.036 Q49.9024 723.646 49.9024 728.389 Q49.9024 733.099 53.4036 735.741 Q56.9047 738.351 63.2704 738.351 Q69.6043 738.351 73.1054 735.741 Q76.6066 733.099 76.6066 728.389 Q76.6066 723.646 73.1054 721.036 Q69.6043 718.394 63.2704 718.394 M77.084 712.538 Q86.187 712.538 90.6111 716.58 Q95.0671 720.622 95.0671 728.961 Q95.0671 732.049 94.5897 734.786 Q94.1441 737.523 93.1892 740.101 L87.4919 740.101 Q88.8924 737.523 89.5608 735.009 Q90.2292 732.494 90.2292 729.884 Q90.2292 724.123 87.2055 721.259 Q84.2136 718.394 78.1343 718.394 L75.2379 718.394 Q78.389 720.209 79.9486 723.041 Q81.5082 725.874 81.5082 729.821 Q81.5082 736.377 76.5111 740.388 Q71.514 744.398 63.2704 744.398 Q54.995 744.398 49.9979 740.388 Q45.0008 736.377 45.0008 729.821 Q45.0008 725.874 46.5604 723.041 Q48.12 720.209 51.2711 718.394 L45.8602 718.394 L45.8602 712.538 L77.084 712.538 Z" fill="#000000" fill-rule="nonzero" fill-opacity="1" /><path clip-path="url(#clip700)" d="M62.2201 669.983 L65.0846 669.983 L65.0846 696.91 Q71.1321 696.528 74.3149 693.282 Q77.4659 690.003 77.4659 684.179 Q77.4659 680.805 76.6384 677.654 Q75.8109 674.471 74.1558 671.352 L79.6939 671.352 Q81.0307 674.503 81.731 677.813 Q82.4312 681.123 82.4312 684.529 Q82.4312 693.059 77.4659 698.056 Q72.5007 703.021 64.0343 703.021 Q55.2814 703.021 50.1571 698.311 Q45.0008 693.568 45.0008 685.547 Q45.0008 678.354 49.6478 674.185 Q54.2629 669.983 62.2201 669.983 M60.5013 675.84 Q55.6952 675.903 52.8306 678.545 Q49.9661 681.155 49.9661 685.484 Q49.9661 690.385 52.7352 693.345 Q55.5042 696.274 60.5332 696.719 L60.5013 675.84 Z" fill="#000000" fill-rule="nonzero" fill-opacity="1" /><circle clip-path="url(#clip702)" cx="633.758" cy="1001.84" r="36" fill="#00a1ff" fill-rule="evenodd" fill-opacity="1" stroke="#000000" stroke-opacity="1" stroke-width="3.2"/>
<circle clip-path="url(#clip702)" cx="443.642" cy="903.574" r="36" fill="#e69f00" fill-rule="evenodd" fill-opacity="1" stroke="#000000" stroke-opacity="1" stroke-width="3.2"/>
<polyline clip-path="url(#clip702)" style="stroke:#000000; stroke-linecap:round; stroke-linejoin:round; stroke-width:8; stroke-opacity:1; fill:none" points="633.758,1001.84 443.642,903.574 "/>
<polyline clip-path="url(#clip702)" style="stroke:#000000; stroke-linecap:round; stroke-linejoin:round; stroke-width:8; stroke-opacity:1; fill:none" points="463.405,930.675 443.642,903.574 477.18,904.024 "/>
<polyline clip-path="url(#clip702)" style="stroke:#000000; stroke-linecap:round; stroke-linejoin:round; stroke-width:8; stroke-opacity:1; fill:none" points="443.642,903.574 633.758,1001.84 "/>
<circle clip-path="url(#clip702)" cx="1095.25" cy="207.87" r="36" fill="#00a1ff" fill-rule="evenodd" fill-opacity="1" stroke="#000000" stroke-opacity="1" stroke-width="3.2"/>
<circle clip-path="url(#clip702)" cx="1166.76" cy="124.112" r="36" fill="#e69f00" fill-rule="evenodd" fill-opacity="1" stroke="#000000" stroke-opacity="1" stroke-width="3.2"/>
<polyline clip-path="url(#clip702)" style="stroke:#000000; stroke-linecap:round; stroke-linejoin:round; stroke-width:8; stroke-opacity:1; fill:none" points="1095.25,207.87 1166.76,124.112 "/>
<polyline clip-path="url(#clip702)" style="stroke:#000000; stroke-linecap:round; stroke-linejoin:round; stroke-width:8; stroke-opacity:1; fill:none" points="1135.88,137.187 1166.76,124.112 1158.69,156.667 "/>
<polyline clip-path="url(#clip702)" style="stroke:#000000; stroke-linecap:round; stroke-linejoin:round; stroke-width:8; stroke-opacity:1; fill:none" points="1166.76,124.112 1095.25,207.87 "/>
<circle clip-path="url(#clip702)" cx="719.098" cy="818.616" r="36" fill="#00a1ff" fill-rule="evenodd" fill-opacity="1" stroke="#000000" stroke-opacity="1" stroke-width="3.2"/>
<circle clip-path="url(#clip702)" cx="831.194" cy="798.462" r="36" fill="#e69f00" fill-rule="evenodd" fill-opacity="1" stroke="#000000" stroke-opacity="1" stroke-width="3.2"/>
<polyline clip-path="url(#clip702)" style="stroke:#000000; stroke-linecap:round; stroke-linejoin:round; stroke-width:8; stroke-opacity:1; fill:none" points="719.098,818.616 831.194,798.462 "/>
<polyline clip-path="url(#clip702)" style="stroke:#000000; stroke-linecap:round; stroke-linejoin:round; stroke-width:8; stroke-opacity:1; fill:none" points="799.013,789.008 831.194,798.462 804.321,818.534 "/>
<polyline clip-path="url(#clip702)" style="stroke:#000000; stroke-linecap:round; stroke-linejoin:round; stroke-width:8; stroke-opacity:1; fill:none" points="831.194,798.462 719.098,818.616 "/>
<circle clip-path="url(#clip702)" cx="844.709" cy="818.616" r="36" fill="#00a1ff" fill-rule="evenodd" fill-opacity="1" stroke="#000000" stroke-opacity="1" stroke-width="3.2"/>
<circle clip-path="url(#clip702)" cx="964.19" cy="799.101" r="36" fill="#e69f00" fill-rule="evenodd" fill-opacity="1" stroke="#000000" stroke-opacity="1" stroke-width="3.2"/>
<polyline clip-path="url(#clip702)" style="stroke:#000000; stroke-linecap:round; stroke-linejoin:round; stroke-width:8; stroke-opacity:1; fill:none" points="844.709,818.616 964.19,799.101 "/>
<polyline clip-path="url(#clip702)" style="stroke:#000000; stroke-linecap:round; stroke-linejoin:round; stroke-width:8; stroke-opacity:1; fill:none" points="932.165,789.133 964.19,799.101 937.001,818.741 "/>
<polyline clip-path="url(#clip702)" style="stroke:#000000; stroke-linecap:round; stroke-linejoin:round; stroke-width:8; stroke-opacity:1; fill:none" points="964.19,799.101 844.709,818.616 "/>
<circle clip-path="url(#clip702)" cx="1123.19" cy="1368.29" r="36" fill="#00a1ff" fill-rule="evenodd" fill-opacity="1" stroke="#000000" stroke-opacity="1" stroke-width="3.2"/>
<circle clip-path="url(#clip702)" cx="1348.39" cy="1368.29" r="36" fill="#e69f00" fill-rule="evenodd" fill-opacity="1" stroke="#000000" stroke-opacity="1" stroke-width="3.2"/>
<polyline clip-path="url(#clip702)" style="stroke:#000000; stroke-linecap:round; stroke-linejoin:round; stroke-width:8; stroke-opacity:1; fill:none" points="1123.19,1368.29 1348.39,1368.29 "/>
<polyline clip-path="url(#clip702)" style="stroke:#000000; stroke-linecap:round; stroke-linejoin:round; stroke-width:8; stroke-opacity:1; fill:none" points="1318.39,1353.29 1348.39,1368.29 1318.39,1383.29 "/>
<polyline clip-path="url(#clip702)" style="stroke:#000000; stroke-linecap:round; stroke-linejoin:round; stroke-width:8; stroke-opacity:1; fill:none" points="1348.39,1368.29 1123.19,1368.29 "/>
<circle clip-path="url(#clip702)" cx="666.634" cy="85.7211" r="36" fill="#00a1ff" fill-rule="evenodd" fill-opacity="1" stroke="#000000" stroke-opacity="1" stroke-width="3.2"/>
<circle clip-path="url(#clip702)" cx="750.51" cy="85.7211" r="36" fill="#e69f00" fill-rule="evenodd" fill-opacity="1" stroke="#000000" stroke-opacity="1" stroke-width="3.2"/>
<polyline clip-path="url(#clip702)" style="stroke:#000000; stroke-linecap:round; stroke-linejoin:round; stroke-width:8; stroke-opacity:1; fill:none" points="666.634,85.7211 750.51,85.7211 "/>
<polyline clip-path="url(#clip702)" style="stroke:#000000; stroke-linecap:round; stroke-linejoin:round; stroke-width:8; stroke-opacity:1; fill:none" points="720.51,70.7211 750.51,85.7211 720.51,100.721 "/>
<polyline clip-path="url(#clip702)" style="stroke:#000000; stroke-linecap:round; stroke-linejoin:round; stroke-width:8; stroke-opacity:1; fill:none" points="750.51,85.7211 666.634,85.7211 "/>
<circle clip-path="url(#clip702)" cx="461.162" cy="391.094" r="36" fill="#00a1ff" fill-rule="evenodd" fill-opacity="1" stroke="#000000" stroke-opacity="1" stroke-width="3.2"/>
<circle clip-path="url(#clip702)" cx="339.848" cy="322.056" r="36" fill="#e69f00" fill-rule="evenodd" fill-opacity="1" stroke="#000000" stroke-opacity="1" stroke-width="3.2"/>
<polyline clip-path="url(#clip702)" style="stroke:#000000; stroke-linecap:round; stroke-linejoin:round; stroke-width:8; stroke-opacity:1; fill:none" points="461.162,391.094 339.848,322.056 "/>
<polyline clip-path="url(#clip702)" style="stroke:#000000; stroke-linecap:round; stroke-linejoin:round; stroke-width:8; stroke-opacity:1; fill:none" points="358.502,349.931 339.848,322.056 373.34,323.857 "/>
<polyline clip-path="url(#clip702)" style="stroke:#000000; stroke-linecap:round; stroke-linejoin:round; stroke-width:8; stroke-opacity:1; fill:none" points="339.848,322.056 461.162,391.094 "/>
<circle clip-path="url(#clip702)" cx="651.703" cy="146.796" r="36" fill="#00a1ff" fill-rule="evenodd" fill-opacity="1" stroke="#000000" stroke-opacity="1" stroke-width="3.2"/>
<circle clip-path="url(#clip702)" cx="714.558" cy="109.604" r="36" fill="#e69f00" fill-rule="evenodd" fill-opacity="1" stroke="#000000" stroke-opacity="1" stroke-width="3.2"/>
<polyline clip-path="url(#clip702)" style="stroke:#000000; stroke-linecap:round; stroke-linejoin:round; stroke-width:8; stroke-opacity:1; fill:none" points="651.703,146.796 714.558,109.604 "/>
<polyline clip-path="url(#clip702)" style="stroke:#000000; stroke-linecap:round; stroke-linejoin:round; stroke-width:8; stroke-opacity:1; fill:none" points="681.101,111.972 714.558,109.604 696.378,137.791 "/>
<polyline clip-path="url(#clip702)" style="stroke:#000000; stroke-linecap:round; stroke-linejoin:round; stroke-width:8; stroke-opacity:1; fill:none" points="714.558,109.604 651.703,146.796 "/>
<circle clip-path="url(#clip702)" cx="1885.77" cy="1246.14" r="36" fill="#00a1ff" fill-rule="evenodd" fill-opacity="1" stroke="#000000" stroke-opacity="1" stroke-width="3.2"/>
<circle clip-path="url(#clip702)" cx="1905.78" cy="1246.14" r="36" fill="#e69f00" fill-rule="evenodd" fill-opacity="1" stroke="#000000" stroke-opacity="1" stroke-width="3.2"/>
<polyline clip-path="url(#clip702)" style="stroke:#000000; stroke-linecap:round; stroke-linejoin:round; stroke-width:8; stroke-opacity:1; fill:none" points="1885.77,1246.14 1905.78,1246.14 "/>
<polyline clip-path="url(#clip702)" style="stroke:#000000; stroke-linecap:round; stroke-linejoin:round; stroke-width:8; stroke-opacity:1; fill:none" points="1875.78,1231.14 1905.78,1246.14 1875.78,1261.14 "/>
<polyline clip-path="url(#clip702)" style="stroke:#000000; stroke-linecap:round; stroke-linejoin:round; stroke-width:8; stroke-opacity:1; fill:none" points="1905.78,1246.14 1885.77,1246.14 "/>
<circle clip-path="url(#clip702)" cx="625.539" cy="146.796" r="36" fill="#00a1ff" fill-rule="evenodd" fill-opacity="1" stroke="#000000" stroke-opacity="1" stroke-width="3.2"/>
<circle clip-path="url(#clip702)" cx="990.475" cy="138.817" r="36" fill="#e69f00" fill-rule="evenodd" fill-opacity="1" stroke="#000000" stroke-opacity="1" stroke-width="3.2"/>
<polyline clip-path="url(#clip702)" style="stroke:#000000; stroke-linecap:round; stroke-linejoin:round; stroke-width:8; stroke-opacity:1; fill:none" points="625.539,146.796 990.475,138.817 "/>
<polyline clip-path="url(#clip702)" style="stroke:#000000; stroke-linecap:round; stroke-linejoin:round; stroke-width:8; stroke-opacity:1; fill:none" points="960.154,124.476 990.475,138.817 960.81,154.469 "/>
<polyline clip-path="url(#clip702)" style="stroke:#000000; stroke-linecap:round; stroke-linejoin:round; stroke-width:8; stroke-opacity:1; fill:none" points="990.475,138.817 625.539,146.796 "/>
<path clip-path="url(#clip700)" d="M1403.52 1361.45 L1897.43 1361.45 L1897.43 1205.93 L1403.52 1205.93  Z" fill="#ffffff" fill-rule="evenodd" fill-opacity="1"/>
<polyline clip-path="url(#clip700)" style="stroke:#000000; stroke-linecap:round; stroke-linejoin:round; stroke-width:4; stroke-opacity:1; fill:none" points="1403.52,1361.45 1897.43,1361.45 1897.43,1205.93 1403.52,1205.93 1403.52,1361.45 "/>
<circle clip-path="url(#clip700)" cx="1477.3" cy="1257.77" r="21.9429" fill="#00a1ff" fill-rule="evenodd" fill-opacity="1" stroke="#000000" stroke-opacity="1" stroke-width="1.95048"/>
<path clip-path="url(#clip700)" d="M1551.07 1240.49 L1555.74 1240.49 L1555.74 1271.11 L1572.57 1271.11 L1572.57 1275.05 L1551.07 1275.05 L1551.07 1240.49 Z" fill="#000000" fill-rule="nonzero" fill-opacity="1" /><path clip-path="url(#clip700)" d="M1586.51 1252.11 Q1583.08 1252.11 1581.09 1254.79 Q1579.1 1257.45 1579.1 1262.11 Q1579.1 1266.76 1581.07 1269.44 Q1583.06 1272.11 1586.51 1272.11 Q1589.91 1272.11 1591.9 1269.42 Q1593.89 1266.74 1593.89 1262.11 Q1593.89 1257.5 1591.9 1254.82 Q1589.91 1252.11 1586.51 1252.11 M1586.51 1248.5 Q1592.06 1248.5 1595.23 1252.11 Q1598.41 1255.72 1598.41 1262.11 Q1598.41 1268.47 1595.23 1272.11 Q1592.06 1275.72 1586.51 1275.72 Q1580.93 1275.72 1577.76 1272.11 Q1574.61 1268.47 1574.61 1262.11 Q1574.61 1255.72 1577.76 1252.11 Q1580.93 1248.5 1586.51 1248.5 Z" fill="#000000" fill-rule="nonzero" fill-opacity="1" /><path clip-path="url(#clip700)" d="M1617.25 1262.01 Q1612.09 1262.01 1610.1 1263.19 Q1608.11 1264.38 1608.11 1267.22 Q1608.11 1269.49 1609.59 1270.83 Q1611.09 1272.15 1613.66 1272.15 Q1617.2 1272.15 1619.33 1269.65 Q1621.48 1267.13 1621.48 1262.96 L1621.48 1262.01 L1617.25 1262.01 M1625.74 1260.25 L1625.74 1275.05 L1621.48 1275.05 L1621.48 1271.11 Q1620.03 1273.47 1617.85 1274.61 Q1615.67 1275.72 1612.53 1275.72 Q1608.54 1275.72 1606.18 1273.5 Q1603.85 1271.25 1603.85 1267.5 Q1603.85 1263.13 1606.76 1260.9 Q1609.7 1258.68 1615.51 1258.68 L1621.48 1258.68 L1621.48 1258.26 Q1621.48 1255.32 1619.54 1253.73 Q1617.62 1252.11 1614.12 1252.11 Q1611.9 1252.11 1609.79 1252.64 Q1607.69 1253.17 1605.74 1254.24 L1605.74 1250.3 Q1608.08 1249.4 1610.28 1248.96 Q1612.48 1248.5 1614.56 1248.5 Q1620.19 1248.5 1622.97 1251.41 Q1625.74 1254.33 1625.74 1260.25 Z" fill="#000000" fill-rule="nonzero" fill-opacity="1" /><path clip-path="url(#clip700)" d="M1656.07 1259.4 L1656.07 1275.05 L1651.81 1275.05 L1651.81 1259.54 Q1651.81 1255.86 1650.37 1254.03 Q1648.94 1252.2 1646.07 1252.2 Q1642.62 1252.2 1640.63 1254.4 Q1638.64 1256.6 1638.64 1260.39 L1638.64 1275.05 L1634.35 1275.05 L1634.35 1249.12 L1638.64 1249.12 L1638.64 1253.15 Q1640.17 1250.81 1642.23 1249.65 Q1644.31 1248.5 1647.02 1248.5 Q1651.48 1248.5 1653.78 1251.27 Q1656.07 1254.03 1656.07 1259.4 Z" fill="#000000" fill-rule="nonzero" fill-opacity="1" /><path clip-path="url(#clip700)" d="M1696.69 1253.06 L1696.69 1239.03 L1700.95 1239.03 L1700.95 1275.05 L1696.69 1275.05 L1696.69 1271.16 Q1695.35 1273.47 1693.29 1274.61 Q1691.25 1275.72 1688.38 1275.72 Q1683.68 1275.72 1680.72 1271.97 Q1677.78 1268.22 1677.78 1262.11 Q1677.78 1256 1680.72 1252.25 Q1683.68 1248.5 1688.38 1248.5 Q1691.25 1248.5 1693.29 1249.63 Q1695.35 1250.74 1696.69 1253.06 M1682.18 1262.11 Q1682.18 1266.81 1684.1 1269.49 Q1686.04 1272.15 1689.42 1272.15 Q1692.8 1272.15 1694.75 1269.49 Q1696.69 1266.81 1696.69 1262.11 Q1696.69 1257.41 1694.75 1254.75 Q1692.8 1252.06 1689.42 1252.06 Q1686.04 1252.06 1684.1 1254.75 Q1682.18 1257.41 1682.18 1262.11 Z" fill="#000000" fill-rule="nonzero" fill-opacity="1" /><path clip-path="url(#clip700)" d="M1731.9 1261.02 L1731.9 1263.1 L1712.32 1263.1 Q1712.6 1267.5 1714.96 1269.82 Q1717.34 1272.11 1721.58 1272.11 Q1724.03 1272.11 1726.32 1271.5 Q1728.64 1270.9 1730.91 1269.7 L1730.91 1273.73 Q1728.61 1274.7 1726.21 1275.21 Q1723.8 1275.72 1721.32 1275.72 Q1715.12 1275.72 1711.48 1272.11 Q1707.87 1268.5 1707.87 1262.34 Q1707.87 1255.97 1711.3 1252.25 Q1714.75 1248.5 1720.58 1248.5 Q1725.81 1248.5 1728.85 1251.88 Q1731.9 1255.23 1731.9 1261.02 M1727.64 1259.77 Q1727.6 1256.27 1725.67 1254.19 Q1723.78 1252.11 1720.63 1252.11 Q1717.06 1252.11 1714.91 1254.12 Q1712.78 1256.13 1712.46 1259.79 L1727.64 1259.77 Z" fill="#000000" fill-rule="nonzero" fill-opacity="1" /><path clip-path="url(#clip700)" d="M1760.44 1259.4 L1760.44 1275.05 L1756.18 1275.05 L1756.18 1259.54 Q1756.18 1255.86 1754.75 1254.03 Q1753.31 1252.2 1750.44 1252.2 Q1746.99 1252.2 1745 1254.4 Q1743.01 1256.6 1743.01 1260.39 L1743.01 1275.05 L1738.73 1275.05 L1738.73 1249.12 L1743.01 1249.12 L1743.01 1253.15 Q1744.54 1250.81 1746.6 1249.65 Q1748.68 1248.5 1751.39 1248.5 Q1755.86 1248.5 1758.15 1251.27 Q1760.44 1254.03 1760.44 1259.4 Z" fill="#000000" fill-rule="nonzero" fill-opacity="1" /><path clip-path="url(#clip700)" d="M1768.94 1249.12 L1773.2 1249.12 L1773.2 1275.05 L1768.94 1275.05 L1768.94 1249.12 M1768.94 1239.03 L1773.2 1239.03 L1773.2 1244.42 L1768.94 1244.42 L1768.94 1239.03 Z" fill="#000000" fill-rule="nonzero" fill-opacity="1" /><path clip-path="url(#clip700)" d="M1804.28 1261.02 L1804.28 1263.1 L1784.7 1263.1 Q1784.98 1267.5 1787.34 1269.82 Q1789.72 1272.11 1793.96 1272.11 Q1796.41 1272.11 1798.71 1271.5 Q1801.02 1270.9 1803.29 1269.7 L1803.29 1273.73 Q1801 1274.7 1798.59 1275.21 Q1796.18 1275.72 1793.71 1275.72 Q1787.5 1275.72 1783.87 1272.11 Q1780.26 1268.5 1780.26 1262.34 Q1780.26 1255.97 1783.68 1252.25 Q1787.13 1248.5 1792.97 1248.5 Q1798.2 1248.5 1801.23 1251.88 Q1804.28 1255.23 1804.28 1261.02 M1800.03 1259.77 Q1799.98 1256.27 1798.06 1254.19 Q1796.16 1252.11 1793.01 1252.11 Q1789.45 1252.11 1787.29 1254.12 Q1785.16 1256.13 1784.84 1259.79 L1800.03 1259.77 Z" fill="#000000" fill-rule="nonzero" fill-opacity="1" /><path clip-path="url(#clip700)" d="M1828.34 1253.06 L1828.34 1239.03 L1832.59 1239.03 L1832.59 1275.05 L1828.34 1275.05 L1828.34 1271.16 Q1826.99 1273.47 1824.93 1274.61 Q1822.9 1275.72 1820.03 1275.72 Q1815.33 1275.72 1812.36 1271.97 Q1809.42 1268.22 1809.42 1262.11 Q1809.42 1256 1812.36 1252.25 Q1815.33 1248.5 1820.03 1248.5 Q1822.9 1248.5 1824.93 1249.63 Q1826.99 1250.74 1828.34 1253.06 M1813.82 1262.11 Q1813.82 1266.81 1815.74 1269.49 Q1817.69 1272.15 1821.07 1272.15 Q1824.45 1272.15 1826.39 1269.49 Q1828.34 1266.81 1828.34 1262.11 Q1828.34 1257.41 1826.39 1254.75 Q1824.45 1252.06 1821.07 1252.06 Q1817.69 1252.06 1815.74 1254.75 Q1813.82 1257.41 1813.82 1262.11 Z" fill="#000000" fill-rule="nonzero" fill-opacity="1" /><circle clip-path="url(#clip700)" cx="1477.3" cy="1309.61" r="21.9429" fill="#e69f00" fill-rule="evenodd" fill-opacity="1" stroke="#000000" stroke-opacity="1" stroke-width="1.95048"/>
<path clip-path="url(#clip700)" d="M1551.07 1292.33 L1555.74 1292.33 L1555.74 1322.95 L1572.57 1322.95 L1572.57 1326.89 L1551.07 1326.89 L1551.07 1292.33 Z" fill="#000000" fill-rule="nonzero" fill-opacity="1" /><path clip-path="url(#clip700)" d="M1586.51 1303.95 Q1583.08 1303.95 1581.09 1306.63 Q1579.1 1309.29 1579.1 1313.95 Q1579.1 1318.6 1581.07 1321.28 Q1583.06 1323.95 1586.51 1323.95 Q1589.91 1323.95 1591.9 1321.26 Q1593.89 1318.58 1593.89 1313.95 Q1593.89 1309.34 1591.9 1306.66 Q1589.91 1303.95 1586.51 1303.95 M1586.51 1300.34 Q1592.06 1300.34 1595.23 1303.95 Q1598.41 1307.56 1598.41 1313.95 Q1598.41 1320.31 1595.23 1323.95 Q1592.06 1327.56 1586.51 1327.56 Q1580.93 1327.56 1577.76 1323.95 Q1574.61 1320.31 1574.61 1313.95 Q1574.61 1307.56 1577.76 1303.95 Q1580.93 1300.34 1586.51 1300.34 Z" fill="#000000" fill-rule="nonzero" fill-opacity="1" /><path clip-path="url(#clip700)" d="M1617.25 1313.85 Q1612.09 1313.85 1610.1 1315.03 Q1608.11 1316.22 1608.11 1319.06 Q1608.11 1321.33 1609.59 1322.67 Q1611.09 1323.99 1613.66 1323.99 Q1617.2 1323.99 1619.33 1321.49 Q1621.48 1318.97 1621.48 1314.8 L1621.48 1313.85 L1617.25 1313.85 M1625.74 1312.09 L1625.74 1326.89 L1621.48 1326.89 L1621.48 1322.95 Q1620.03 1325.31 1617.85 1326.45 Q1615.67 1327.56 1612.53 1327.56 Q1608.54 1327.56 1606.18 1325.34 Q1603.85 1323.09 1603.85 1319.34 Q1603.85 1314.97 1606.76 1312.74 Q1609.7 1310.52 1615.51 1310.52 L1621.48 1310.52 L1621.48 1310.1 Q1621.48 1307.16 1619.54 1305.57 Q1617.62 1303.95 1614.12 1303.95 Q1611.9 1303.95 1609.79 1304.48 Q1607.69 1305.01 1605.74 1306.08 L1605.74 1302.14 Q1608.08 1301.24 1610.28 1300.8 Q1612.48 1300.34 1614.56 1300.34 Q1620.19 1300.34 1622.97 1303.25 Q1625.74 1306.17 1625.74 1312.09 Z" fill="#000000" fill-rule="nonzero" fill-opacity="1" /><path clip-path="url(#clip700)" d="M1656.07 1311.24 L1656.07 1326.89 L1651.81 1326.89 L1651.81 1311.38 Q1651.81 1307.7 1650.37 1305.87 Q1648.94 1304.04 1646.07 1304.04 Q1642.62 1304.04 1640.63 1306.24 Q1638.64 1308.44 1638.64 1312.23 L1638.64 1326.89 L1634.35 1326.89 L1634.35 1300.96 L1638.64 1300.96 L1638.64 1304.99 Q1640.17 1302.65 1642.23 1301.49 Q1644.31 1300.34 1647.02 1300.34 Q1651.48 1300.34 1653.78 1303.11 Q1656.07 1305.87 1656.07 1311.24 Z" fill="#000000" fill-rule="nonzero" fill-opacity="1" /><path clip-path="url(#clip700)" d="M1683.75 1323 L1683.75 1336.75 L1679.47 1336.75 L1679.47 1300.96 L1683.75 1300.96 L1683.75 1304.9 Q1685.1 1302.58 1687.13 1301.47 Q1689.19 1300.34 1692.04 1300.34 Q1696.76 1300.34 1699.7 1304.09 Q1702.66 1307.84 1702.66 1313.95 Q1702.66 1320.06 1699.7 1323.81 Q1696.76 1327.56 1692.04 1327.56 Q1689.19 1327.56 1687.13 1326.45 Q1685.1 1325.31 1683.75 1323 M1698.24 1313.95 Q1698.24 1309.25 1696.3 1306.59 Q1694.38 1303.9 1691 1303.9 Q1687.62 1303.9 1685.67 1306.59 Q1683.75 1309.25 1683.75 1313.95 Q1683.75 1318.65 1685.67 1321.33 Q1687.62 1323.99 1691 1323.99 Q1694.38 1323.99 1696.3 1321.33 Q1698.24 1318.65 1698.24 1313.95 Z" fill="#000000" fill-rule="nonzero" fill-opacity="1" /><path clip-path="url(#clip700)" d="M1724.75 1304.94 Q1724.03 1304.53 1723.17 1304.34 Q1722.34 1304.13 1721.32 1304.13 Q1717.71 1304.13 1715.77 1306.49 Q1713.85 1308.83 1713.85 1313.23 L1713.85 1326.89 L1709.56 1326.89 L1709.56 1300.96 L1713.85 1300.96 L1713.85 1304.99 Q1715.19 1302.63 1717.34 1301.49 Q1719.49 1300.34 1722.57 1300.34 Q1723.01 1300.34 1723.54 1300.41 Q1724.08 1300.45 1724.72 1300.57 L1724.75 1304.94 Z" fill="#000000" fill-rule="nonzero" fill-opacity="1" /><path clip-path="url(#clip700)" d="M1738.22 1303.95 Q1734.79 1303.95 1732.8 1306.63 Q1730.81 1309.29 1730.81 1313.95 Q1730.81 1318.6 1732.78 1321.28 Q1734.77 1323.95 1738.22 1323.95 Q1741.62 1323.95 1743.61 1321.26 Q1745.6 1318.58 1745.6 1313.95 Q1745.6 1309.34 1743.61 1306.66 Q1741.62 1303.95 1738.22 1303.95 M1738.22 1300.34 Q1743.78 1300.34 1746.95 1303.95 Q1750.12 1307.56 1750.12 1313.95 Q1750.12 1320.31 1746.95 1323.95 Q1743.78 1327.56 1738.22 1327.56 Q1732.64 1327.56 1729.47 1323.95 Q1726.32 1320.31 1726.32 1313.95 Q1726.32 1307.56 1729.47 1303.95 Q1732.64 1300.34 1738.22 1300.34 Z" fill="#000000" fill-rule="nonzero" fill-opacity="1" /><path clip-path="url(#clip700)" d="M1754.12 1300.96 L1758.64 1300.96 L1766.74 1322.72 L1774.84 1300.96 L1779.35 1300.96 L1769.63 1326.89 L1763.84 1326.89 L1754.12 1300.96 Z" fill="#000000" fill-rule="nonzero" fill-opacity="1" /><path clip-path="url(#clip700)" d="M1785.23 1300.96 L1789.49 1300.96 L1789.49 1326.89 L1785.23 1326.89 L1785.23 1300.96 M1785.23 1290.87 L1789.49 1290.87 L1789.49 1296.26 L1785.23 1296.26 L1785.23 1290.87 Z" fill="#000000" fill-rule="nonzero" fill-opacity="1" /><path clip-path="url(#clip700)" d="M1815.47 1304.9 L1815.47 1290.87 L1819.72 1290.87 L1819.72 1326.89 L1815.47 1326.89 L1815.47 1323 Q1814.12 1325.31 1812.06 1326.45 Q1810.03 1327.56 1807.15 1327.56 Q1802.46 1327.56 1799.49 1323.81 Q1796.55 1320.06 1796.55 1313.95 Q1796.55 1307.84 1799.49 1304.09 Q1802.46 1300.34 1807.15 1300.34 Q1810.03 1300.34 1812.06 1301.47 Q1814.12 1302.58 1815.47 1304.9 M1800.95 1313.95 Q1800.95 1318.65 1802.87 1321.33 Q1804.82 1323.99 1808.2 1323.99 Q1811.58 1323.99 1813.52 1321.33 Q1815.47 1318.65 1815.47 1313.95 Q1815.47 1309.25 1813.52 1306.59 Q1811.58 1303.9 1808.2 1303.9 Q1804.82 1303.9 1802.87 1306.59 Q1800.95 1309.25 1800.95 1313.95 Z" fill="#000000" fill-rule="nonzero" fill-opacity="1" /><path clip-path="url(#clip700)" d="M1850.67 1312.86 L1850.67 1314.94 L1831.09 1314.94 Q1831.37 1319.34 1833.73 1321.66 Q1836.11 1323.95 1840.35 1323.95 Q1842.8 1323.95 1845.09 1323.34 Q1847.41 1322.74 1849.68 1321.54 L1849.68 1325.57 Q1847.39 1326.54 1844.98 1327.05 Q1842.57 1327.56 1840.09 1327.56 Q1833.89 1327.56 1830.26 1323.95 Q1826.65 1320.34 1826.65 1314.18 Q1826.65 1307.81 1830.07 1304.09 Q1833.52 1300.34 1839.35 1300.34 Q1844.59 1300.34 1847.62 1303.72 Q1850.67 1307.07 1850.67 1312.86 M1846.41 1311.61 Q1846.37 1308.11 1844.45 1306.03 Q1842.55 1303.95 1839.4 1303.95 Q1835.84 1303.95 1833.68 1305.96 Q1831.55 1307.97 1831.23 1311.63 L1846.41 1311.61 Z" fill="#000000" fill-rule="nonzero" fill-opacity="1" /><path clip-path="url(#clip700)" d="M1874.72 1304.9 L1874.72 1290.87 L1878.98 1290.87 L1878.98 1326.89 L1874.72 1326.89 L1874.72 1323 Q1873.38 1325.31 1871.32 1326.45 Q1869.28 1327.56 1866.41 1327.56 Q1861.71 1327.56 1858.75 1323.81 Q1855.81 1320.06 1855.81 1313.95 Q1855.81 1307.84 1858.75 1304.09 Q1861.71 1300.34 1866.41 1300.34 Q1869.28 1300.34 1871.32 1301.47 Q1873.38 1302.58 1874.72 1304.9 M1860.21 1313.95 Q1860.21 1318.65 1862.13 1321.33 Q1864.08 1323.99 1867.46 1323.99 Q1870.84 1323.99 1872.78 1321.33 Q1874.72 1318.65 1874.72 1313.95 Q1874.72 1309.25 1872.78 1306.59 Q1870.84 1303.9 1867.46 1303.9 Q1864.08 1303.9 1862.13 1306.59 Q1860.21 1309.25 1860.21 1313.95 Z" fill="#000000" fill-rule="nonzero" fill-opacity="1" /></svg>
